<svg width="280" height="280" viewBox="0 0 280 280" fill="none" xmlns="http://www.w3.org/2000/svg">
<path d="M164 9.99998C129.522 9.99998 96.4558 23.6964 72.0761 48.0761C47.6964 72.4558 34 105.522 34 140C34 174.478 47.6964 207.544 72.0761 231.924C96.4559 256.304 129.522 270 164 270L164 222C142.252 222 121.395 213.361 106.017 197.983C90.6393 182.605 82 161.748 82 140C82 118.252 90.6393 97.3952 106.017 82.0172C121.395 66.6392 142.252 58 164 58L164 9.99998Z" fill="#E9C47F"/>
<path d="M164 58C185.748 58 206.605 66.6393 221.983 82.0172C237.361 97.3952 246 118.252 246 140C246 161.748 237.361 182.605 221.983 197.983C206.605 213.361 185.748 222 164 222V174C173.017 174 181.665 170.418 188.042 164.042C194.418 157.665 198 149.017 198 140C198 130.983 194.418 122.335 188.042 115.958C181.665 109.582 173.017 106 164 106V58Z" fill="#47A3B8"/>
</svg>
